<svg viewBox="0 0 375 71" fill="none" xmlns="http://www.w3.org/2000/svg">
<path d="M129.61 30.7452L117.379 17.0799H114.433V48.6359H122.602V34.611L129.209 41.6235H130.101L136.753 34.611V48.6359H144.922V17.0799H142.068L129.61 30.7452ZM172.376 17.1698H152.868V48.6359H172.782V41.4879H160.814V35.961H171.439V28.813H160.814V24.3621H172.377L172.376 17.1698ZM199.92 37.4879C207.823 32.0937 205.589 17.2147 193.313 17.1698H179.608V48.6359H187.599V39.3759H191.75L197.107 48.6359H206.035V47.4672L199.92 37.4879ZM193.313 32.1387H187.599V24.3621C189.474 24.3621 191.438 24.3171 193.313 24.3621C197.866 24.407 197.643 32.1387 193.313 32.1387ZM208.982 32.9029C209.026 43.6013 217.062 48.9955 225.008 48.9506C231.659 48.9506 238.668 45.4444 239.828 36.5439H231.972C231.123 39.9153 228.4 41.6235 225.008 41.6235C220.276 41.5785 217.24 37.5329 217.24 32.9029C217.24 27.6885 220.32 24.1336 225.008 24.1336C228.356 24.1336 230.722 25.5721 231.838 28.7636H239.694C238.489 20.3577 231.48 16.8065 225.008 16.8065C217.062 16.8102 209.026 22.2044 208.982 32.9029ZM271.97 17.1698H263.8V28.5875H254.159V17.1698H245.989V48.6359H254.159V36.0045H263.802V48.6359H271.971L271.97 17.1698ZM291.745 17.1698H279.963V48.6359H291.745C312.102 48.546 312.102 17.2597 291.745 17.1698ZM287.951 24.4969H291.745C301.698 24.4969 301.698 41.3088 291.745 41.3088H287.951V24.4969ZM332.949 48.6359H340.761V47.4672L326.654 16.7652H323.215L309.155 47.4672V48.6359H316.967L318.797 44.6802H331.118L332.949 48.6359ZM328.485 37.7576H321.431L324.913 29.4865L328.485 37.7576ZM375 32.9478C375 11.1912 342.947 11.1912 342.947 32.9478C342.948 54.7523 375 54.7523 375 32.9478ZM351.162 32.9478C351.162 21.62 366.831 21.62 366.831 32.9478C366.831 44.3618 351.162 44.3618 351.162 32.9478Z" fill="#62514B"/>
<path fill-rule="evenodd" clip-rule="evenodd" d="M12.2128 28.3993L0.000976562 35.4988L12.2128 28.3993ZM0.000976562 49.6961L12.2135 56.7963V28.3956L24.4267 35.4951L36.6392 42.5952L48.8517 35.4951L61.0642 28.3956V42.596L48.8524 49.6961L36.6399 56.7963V70.9959L48.8524 63.8957L61.065 56.7955L73.2775 49.6954V7.09518L61.0657 14.1953L48.8539 21.2955L36.6414 28.3956L24.4296 21.2955L12.2163 14.1953V-0.00488281L0.00454987 7.09518V49.6954L0.000976562 49.6961Z" fill="url(#paint0_linear)"/>
<defs>
<linearGradient id="paint0_linear" x1="0.000976562" y1="-0.00488281" x2="79.2873" y2="81.2367" gradientUnits="userSpaceOnUse">
<stop stop-color="#E34D6F"/>
<stop offset="1" stop-color="#E9C54C"/>
</linearGradient>
</defs>
</svg>